<svg xmlns="http://www.w3.org/2000/svg" width="63" height="23" fill="none" viewBox="0 0 63 23">
  <path fill="#FA00FF" d="M19.68 0v13.143h3.281V0h-3.28Zm3.281 13.143v6.571h3.28v-6.571h-3.28Zm3.28 6.571V23h3.28v-3.286h-3.28Zm3.28 0h3.28v-6.571h-3.28v6.571Zm3.28-6.571h3.28V0h-3.28v13.143ZM39.362 0v23h3.28V0h-3.28Zm6.56 0v23h3.28V9.857h9.84V6.571h-9.84V3.286h9.84V0h-13.12Zm13.12 6.571h3.28V3.286h-3.28V6.57Zm-52.482 0V3.286H3.28V0H0v23h3.28V6.571h3.28Zm3.28 0H6.56v3.286h3.28V6.571ZM16.4 23V0h-3.28v3.286H9.84V6.57h3.28V23h3.28Z"/>
</svg>
