<svg xmlns="http://www.w3.org/2000/svg" width="53" height="23" fill="none" viewBox="0 0 53 23">
  <path fill="#03A700" d="M0 0v13.143h3.292V0H0Zm3.292 13.143v6.571h3.293v-6.571H3.292Zm3.293 6.571V23h3.292v-3.286H6.585Zm3.292 0h3.292v-6.571H9.877v6.571Zm3.293-6.571h3.292V0h-3.293v13.143ZM19.754 0v23h3.292V0h-3.292Zm6.585 0v23h3.292V9.857h9.877V6.571h-9.877V3.286h9.877V0h-13.17Z"/>
  <path fill="#03A700" d="M39.508 6.571H42.8V3.286h-3.292V6.57ZM42.8 9.857h3.293V6.571h3.292v3.286h3.292v3.286h-3.292v3.286h-3.292v-3.286H42.8V9.857Z"/>
</svg>
